<?xml version="1.0" standalone="no"?>
<!DOCTYPE svg PUBLIC "-//W3C//DTD SVG 20010904//EN"
 "http://www.w3.org/TR/2001/REC-SVG-20010904/DTD/svg10.dtd">
<svg version="1.0" xmlns="http://www.w3.org/2000/svg"
 width="1052.000000pt" height="948.000000pt" viewBox="0 0 1052.000000 948.000000"
 preserveAspectRatio="xMidYMid meet">

<g transform="translate(0.000000,948.000000) scale(0.100000,-0.100000)"
fill="#000000" stroke="none">
<path d="M695 9469 c-287 -38 -546 -247 -643 -519 -50 -140 -62 -316 -29 -440
22 -80 75 -192 117 -245 17 -22 590 -646 1273 -1387 l1242 -1346 695 694 695
694 793 -2 794 -3 -2729 -2657 c-1740 -1694 -2740 -2675 -2762 -2708 -129
-200 -146 -499 -44 -800 34 -102 132 -290 195 -375 105 -141 260 -269 390
-322 139 -56 -176 -53 4628 -53 2616 1 4464 4 4505 10 340 44 605 288 686 630
19 79 17 251 -4 330 -27 102 -90 217 -159 295 -35 38 -603 655 -1262 1370
-659 715 -1202 1303 -1206 1308 -3 4 -319 -317 -701 -713 l-694 -720 -792 0
c-436 0 -793 1 -793 3 0 2 1227 1210 2728 2685 1687 1658 2740 2700 2761 2733
129 199 146 498 44 799 -34 102 -132 290 -195 375 -105 141 -260 269 -390 322
-140 56 178 53 -4638 52 -2445 -1 -4472 -5 -4505 -10z"/>
</g>
</svg>
